<?xml version="1.0" encoding="UTF-8"?>
<svg xmlns="http://www.w3.org/2000/svg" xmlns:xlink="http://www.w3.org/1999/xlink" width="32pt" height="32pt" viewBox="0 0 32 32" version="1.1">
<g id="surface21177917">
<path style=" stroke:none;fill-rule:nonzero;fill:rgb(90.588235%,29.803922%,23.529412%);fill-opacity:1;" d="M 16 3.890625 C 8.308594 3.890625 2.050781 8.894531 2.050781 15.046875 C 2.050781 18.914062 4.472656 22.421875 8.546875 24.496094 C 8.449219 26.019531 8 27.496094 7.238281 28.820312 C 7.164062 28.957031 7.167969 29.121094 7.242188 29.253906 C 7.320312 29.386719 7.457031 29.472656 7.613281 29.480469 L 7.707031 29.480469 C 11.003906 28.75 12.554688 26.867188 13.105469 25.988281 C 14.058594 26.152344 15.023438 26.230469 15.992188 26.234375 C 23.679688 26.234375 29.941406 21.230469 29.941406 15.078125 C 29.941406 8.925781 23.691406 3.890625 16 3.890625 Z M 16 3.890625 "/>
<path style=" stroke:none;fill-rule:nonzero;fill:rgb(90.588235%,29.803922%,23.529412%);fill-opacity:1;" d="M 2.339844 17.328125 C 3.089844 20.265625 5.289062 22.835938 8.546875 24.476562 C 8.449219 26 8 27.480469 7.238281 28.800781 C 7.164062 28.9375 7.167969 29.101562 7.242188 29.234375 C 7.320312 29.371094 7.457031 29.457031 7.613281 29.464844 L 7.707031 29.464844 C 11.003906 28.730469 12.554688 26.847656 13.105469 25.972656 C 14.058594 26.132812 15.023438 26.214844 15.992188 26.214844 C 22.691406 26.214844 28.304688 22.417969 29.640625 17.371094 C 29.777344 16.832031 29.660156 16.257812 29.320312 15.820312 C 28.976562 15.378906 28.449219 15.121094 27.894531 15.121094 L 4.09375 15.121094 C 3.542969 15.121094 3.023438 15.371094 2.683594 15.800781 C 2.339844 16.230469 2.214844 16.792969 2.339844 17.328125 Z M 2.339844 17.328125 "/>
<path style=" stroke:none;fill-rule:nonzero;fill:rgb(80%,80%,80%);fill-opacity:1;" d="M 16 6.550781 C 10.035156 6.550781 5.199219 10.378906 5.199219 15.101562 C 5.199219 19.820312 10.035156 23.648438 16 23.648438 C 21.964844 23.648438 26.800781 19.820312 26.800781 15.101562 C 26.800781 10.378906 21.964844 6.550781 16 6.550781 Z M 16 6.550781 "/>
<path style=" stroke:none;fill-rule:nonzero;fill:rgb(55.294118%,42.352941%,62.352941%);fill-opacity:1;" d="M 16 3.476562 C 8.058594 3.476562 1.601562 8.640625 1.601562 14.992188 C 1.601562 18.984375 4.101562 22.605469 8.308594 24.730469 C 8.207031 26.300781 7.746094 27.828125 6.960938 29.195312 C 6.878906 29.332031 6.875 29.503906 6.957031 29.644531 C 7.035156 29.785156 7.183594 29.875 7.347656 29.875 L 7.445312 29.875 C 10.851562 29.117188 12.449219 27.171875 13.027344 26.273438 C 14.011719 26.4375 15.007812 26.519531 16.003906 26.519531 C 23.945312 26.519531 30.40625 21.355469 30.40625 15.003906 C 30.40625 8.65625 23.941406 3.476562 16 3.476562 Z M 16 25.601562 C 14.953125 25.601562 13.90625 25.507812 12.878906 25.316406 C 12.6875 25.277344 12.492188 25.371094 12.398438 25.539062 C 12.097656 26.09375 10.960938 27.816406 8.222656 28.710938 C 8.820312 27.375 9.160156 25.9375 9.226562 24.472656 C 9.234375 24.292969 9.136719 24.125 8.972656 24.046875 C 4.921875 22.101562 2.5 18.699219 2.5 14.992188 C 2.5 9.140625 8.558594 4.375 16 4.375 C 23.441406 4.375 29.5 9.136719 29.5 14.992188 C 29.5 20.847656 23.441406 25.601562 16 25.601562 Z M 16 25.601562 "/>
<path style=" stroke:none;fill-rule:nonzero;fill:rgb(55.294118%,42.352941%,62.352941%);fill-opacity:1;" d="M 15.871094 22.160156 C 15.621094 22.183594 15.4375 22.398438 15.460938 22.648438 L 15.535156 23.546875 C 15.558594 23.777344 15.753906 23.957031 15.988281 23.957031 L 16.027344 23.957031 C 16.148438 23.949219 16.261719 23.894531 16.34375 23.800781 C 16.421875 23.707031 16.460938 23.585938 16.449219 23.464844 L 16.375 22.566406 C 16.363281 22.445312 16.300781 22.332031 16.207031 22.257812 C 16.113281 22.179688 15.992188 22.144531 15.871094 22.160156 Z M 7.089844 18.25 L 6.351562 18.765625 C 6.148438 18.910156 6.097656 19.191406 6.242188 19.394531 C 6.382812 19.597656 6.664062 19.648438 6.871094 19.503906 L 7.609375 18.988281 C 7.8125 18.84375 7.859375 18.5625 7.71875 18.359375 C 7.574219 18.15625 7.292969 18.105469 7.089844 18.25 Z M 8.667969 20.140625 L 8.089844 20.828125 C 7.964844 20.949219 7.921875 21.128906 7.976562 21.292969 C 8.027344 21.457031 8.171875 21.574219 8.34375 21.597656 C 8.511719 21.621094 8.683594 21.542969 8.777344 21.398438 L 9.359375 20.710938 C 9.519531 20.519531 9.492188 20.238281 9.304688 20.078125 C 9.113281 19.917969 8.828125 19.941406 8.667969 20.132812 Z M 11.285156 21.347656 C 11.058594 21.242188 10.792969 21.335938 10.683594 21.5625 L 10.304688 22.375 C 10.230469 22.523438 10.242188 22.695312 10.335938 22.832031 C 10.429688 22.964844 10.585938 23.039062 10.746094 23.023438 C 10.910156 23.007812 11.050781 22.90625 11.117188 22.757812 L 11.5 21.945312 C 11.605469 21.71875 11.507812 21.453125 11.285156 21.347656 Z M 13.519531 22.058594 C 13.402344 22.035156 13.28125 22.0625 13.183594 22.132812 C 13.085938 22.199219 13.019531 22.304688 13 22.421875 L 12.839844 23.320312 C 12.820312 23.4375 12.847656 23.558594 12.914062 23.65625 C 12.984375 23.757812 13.089844 23.824219 13.207031 23.84375 L 13.285156 23.84375 C 13.507812 23.847656 13.699219 23.6875 13.738281 23.46875 L 13.894531 22.570312 C 13.933594 22.324219 13.765625 22.097656 13.519531 22.058594 Z M 21.203125 8.101562 C 21.429688 8.207031 21.695312 8.105469 21.796875 7.878906 C 21.902344 7.652344 21.800781 7.386719 21.574219 7.285156 C 19.824219 6.496094 17.921875 6.09375 16 6.101562 C 9.808594 6.101562 4.75 10.148438 4.75 15.101562 C 4.75 15.707031 4.824219 16.3125 4.976562 16.898438 C 5.027344 17.105469 5.214844 17.25 5.425781 17.242188 C 5.460938 17.246094 5.5 17.246094 5.539062 17.242188 C 5.777344 17.183594 5.925781 16.9375 5.867188 16.699219 C 5.726562 16.175781 5.65625 15.640625 5.648438 15.101562 C 5.648438 10.632812 10.285156 7 16 7 C 17.792969 6.992188 19.566406 7.367188 21.203125 8.101562 Z M 26.113281 11.179688 C 26.042969 11.019531 25.890625 10.910156 25.714844 10.902344 C 25.539062 10.894531 25.375 10.992188 25.292969 11.148438 C 25.214844 11.304688 25.234375 11.492188 25.34375 11.628906 C 25.992188 12.671875 26.34375 13.871094 26.351562 15.101562 C 26.351562 18.785156 23.171875 22.011719 18.625 22.9375 C 18.375 22.964844 18.195312 23.183594 18.21875 23.433594 C 18.242188 23.683594 18.464844 23.863281 18.714844 23.839844 L 18.804688 23.839844 C 23.757812 22.808594 27.25 19.222656 27.25 15.101562 C 27.242188 13.714844 26.847656 12.355469 26.113281 11.179688 Z M 24.144531 10.121094 C 24.320312 10.300781 24.605469 10.300781 24.78125 10.125 C 24.957031 9.949219 24.960938 9.664062 24.785156 9.488281 C 24.402344 9.109375 23.996094 8.757812 23.558594 8.441406 C 23.359375 8.292969 23.078125 8.335938 22.929688 8.539062 C 22.785156 8.742188 22.828125 9.023438 23.027344 9.167969 C 23.425781 9.457031 23.796875 9.777344 24.144531 10.121094 Z M 24.144531 10.121094 "/>
<path style=" stroke:none;fill-rule:nonzero;fill:rgb(0%,0%,0%);fill-opacity:1;" d="M 17.351562 12.398438 L 15.550781 12.398438 C 15.300781 12.398438 15.101562 12.601562 15.101562 12.851562 C 15.085938 12.972656 15.128906 13.09375 15.21875 13.183594 C 15.304688 13.269531 15.425781 13.3125 15.550781 13.300781 L 15.914062 13.300781 L 15.160156 18.699219 L 14.199219 18.699219 C 13.953125 18.699219 13.75 18.902344 13.75 19.148438 C 13.738281 19.273438 13.78125 19.394531 13.867188 19.480469 C 13.953125 19.570312 14.078125 19.613281 14.199219 19.601562 L 16.898438 19.601562 C 17.148438 19.601562 17.351562 19.398438 17.351562 19.148438 C 17.351562 18.902344 17.148438 18.699219 16.898438 18.699219 L 16.066406 18.699219 L 16.835938 13.300781 L 17.351562 13.300781 C 17.597656 13.300781 17.800781 13.097656 17.800781 12.851562 C 17.800781 12.601562 17.597656 12.398438 17.351562 12.398438 Z M 16.898438 9.699219 C 16.402344 9.699219 16 10.101562 16 10.601562 C 16 11.097656 16.402344 11.5 16.898438 11.5 C 17.398438 11.5 17.800781 11.097656 17.800781 10.601562 C 17.800781 10.101562 17.398438 9.699219 16.898438 9.699219 Z M 16.898438 9.699219 "/>
</g>
</svg>
