<?xml version="1.0"?>
<svg xmlns="http://www.w3.org/2000/svg" id="Layer_3" enable-background="new 0 0 64 64" height="512px" viewBox="0 0 64 64" width="512px" class=""><g><path d="m4 28h48v34h-48z" fill="#b2b0b2" data-original="#B2B0B2" class="" data-old_color="#b2b0b2" style="fill:#7E9CBB"/><path d="m4 28h45v34h-45z" fill="#edebed" data-original="#EDEBED" class=""/><path d="m30.003 18c.058 2.916.967 5.892 2.898 8.604l1.051 1.396h.048-32v-10h28z" fill="#8b6d5e" data-original="#8B6D5E" class="" data-old_color="#8b6d5e" style="fill:#8896B1"/><path d="m26.003 18h-.003-24v10h27.952l-1.051-1.396c-1.932-2.712-2.84-5.688-2.898-8.604z" fill="#b9917d" data-original="#B9917D" class="" data-old_color="#b9917d" style="fill:#6A9DDF"/><path d="m46 2c12.911 0 20.486 14.229 13.099 24.604l-13.099 19.396-13.099-19.396c-7.387-10.375.188-24.604 13.099-24.604z" fill="#bde66c" data-original="#BDE66C" class="" data-old_color="#bde66c" style="fill:#ED4444"/><path d="m18 44h10v18h-10z" fill="#8ead51" data-original="#8EAD51" class="" data-old_color="#8ead51" style="fill:#BB5A5A"/><path d="m18 44h7v18h-7z" fill="#bde66c" data-original="#BDE66C" class="" data-old_color="#bde66c" style="fill:#ED4444"/><path d="m28 44h10v18h-10z" fill="#8ead51" data-original="#8EAD51" class="" data-old_color="#8ead51" style="fill:#BB5A5A"/><path d="m28 44h7v18h-7z" fill="#bde66c" data-original="#BDE66C" class="" data-old_color="#bde66c" style="fill:#ED4444"/><path d="m38 52h14v10h-14z" fill="#8b6d5e" data-original="#8B6D5E" class="" data-old_color="#8b6d5e" style="fill:#8896B1"/><path d="m38 52h11v10h-11z" fill="#b9917d" data-original="#B9917D" class="" data-old_color="#b9917d" style="fill:#6A9DDF"/><path d="m4 52h14v10h-14z" fill="#8b6d5e" data-original="#8B6D5E" class="" data-old_color="#8b6d5e" style="fill:#8896B1"/><path d="m4 52h11v10h-11z" fill="#b9917d" data-original="#B9917D" class="" data-old_color="#b9917d" style="fill:#6A9DDF"/><path d="m38 63h-20c-.553 0-1-.447-1-1v-18c0-.553.447-1 1-1h20c.553 0 1 .447 1 1v18c0 .553-.447 1-1 1zm-19-2h18v-16h-18z" data-original="#000000" class="" data-old_color="#000000" style="fill:#343131"/><path d="m12 32h16v8h-16z" fill="#78adbf" data-original="#78ADBF" class=""/><path d="m12 32h13v8h-13z" fill="#a0e6ff" data-original="#A0E6FF" class=""/><path d="m37 32.048 5.988 7.952h-14.988v-8h9.125z" fill="#78adbf" data-original="#78ADBF" class=""/><path d="m34.125 32h-6.125v8h11.988l-5.988-7.952z" fill="#a0e6ff" data-original="#A0E6FF" class=""/><circle cx="46" cy="18" fill="#edebed" r="12" data-original="#EDEBED" class=""/><path d="m41.707 18.293 4.586-4.586c.453-.453 1.067-.707 1.707-.707.64 0 1.254.254 1.707.707l.586.586c.453.453.707 1.067.707 1.707 0 .64-.254 1.254-.707 1.707l-4.586 4.586c-.453.453-1.067.707-1.707.707-.64 0-1.254-.254-1.707-.707l-.586-.586c-.453-.453-.707-1.067-.707-1.707 0-.64.254-1.254.707-1.707z" fill="#fff" data-original="#FFF" class="active-path" data-old_color="#fff" style="fill:#FFFFFF"/><path d="m48 20-2.293 2.293c-.453.453-1.067.707-1.707.707-.64 0-1.254-.254-1.707-.707l-.586-.586c-.453-.453-.707-1.067-.707-1.707 0-.64.254-1.254.707-1.707l2.293-2.293z" fill="#ff8087" data-original="#FF8087" class="" style="fill:#FFF39D" data-old_color="#ff8087"/><path d="m52 63h-48c-.553 0-1-.447-1-1v-34h2v33h46v-24h2v25c0 .553-.447 1-1 1z" data-original="#000000" class="" data-old_color="#000000" style="fill:#343131"/><path d="m34 29h-32c-.553 0-1-.448-1-1v-10c0-.552.447-1 1-1h28v2h-27v8h31z" data-original="#000000" class="" data-old_color="#000000" style="fill:#343131"/><path d="m42 41h-30c-.553 0-1-.447-1-1v-8c0-.552.447-1 1-1h25.125v2h-24.125v6h29z" data-original="#000000" class="" data-old_color="#000000" style="fill:#343131"/><path d="m27 44h2v18h-2z" data-original="#000000" class="" data-old_color="#000000" style="fill:#343131"/><path d="m23 51h2v4h-2z" data-original="#000000" class="" data-old_color="#000000" style="fill:#343131"/><path d="m31 51h2v4h-2z" data-original="#000000" class="" data-old_color="#000000" style="fill:#343131"/><path d="m4 51h14v2h-14z" data-original="#000000" class="" data-old_color="#000000" style="fill:#343131"/><path d="m38 51h14v2h-14z" data-original="#000000" class="" data-old_color="#000000" style="fill:#343131"/><path d="m27 32h2v8h-2z" data-original="#000000" class="" data-old_color="#000000" style="fill:#343131"/><path d="m44 24c-.911 0-1.769-.355-2.414-1l-.586-.586c-.645-.644-1-1.501-1-2.414s.355-1.77 1-2.414l4.586-4.586c1.291-1.29 3.537-1.29 4.828 0l.586.586c.645.644 1 1.501 1 2.414s-.355 1.77-1 2.415l-4.586 4.585c-.645.645-1.503 1-2.414 1zm4-10c-.378 0-.732.147-1 .415l-4.586 4.585c-.268.267-.414.622-.414 1s.146.733.414 1l.586.586c.535.534 1.465.535 2 0l4.586-4.586c.268-.267.414-.622.414-1s-.146-.733-.414-1l-.586-.586c-.268-.267-.622-.414-1-.414z" data-original="#000000" class="" data-old_color="#000000" style="fill:#343131"/><path d="m45 15.172h2v5.657h-2z" transform="matrix(.707 -.707 .707 .707 .745 37.799)" data-original="#000000" class="" data-old_color="#000000" style="fill:#343131"/><path d="m46 31c-7.168 0-13-5.832-13-13s5.832-13 13-13 13 5.832 13 13-5.832 13-13 13zm0-24c-6.065 0-11 4.935-11 11s4.935 11 11 11 11-4.935 11-11-4.935-11-11-11z" data-original="#000000" class="" data-old_color="#000000" style="fill:#343131"/><path d="m46 47c-.332 0-.643-.165-.829-.44l-13.1-19.396c-3.625-5.091-4.086-11.463-1.219-17.024 2.907-5.638 8.711-9.14 15.148-9.14s12.241 3.502 15.147 9.14c2.867 5.561 2.406 11.933-1.233 17.044l-13.085 19.376c-.186.275-.497.44-.829.44zm0-44c-5.771 0-10.77 3.012-13.37 8.056-2.518 4.883-2.111 10.478 1.085 14.968l12.285 18.189 12.271-18.168c3.211-4.51 3.617-10.105 1.1-14.988-2.601-5.045-7.6-8.057-13.371-8.057z" data-original="#000000" class="" data-old_color="#000000" style="fill:#343131"/></g> </svg>
